<?xml version="1.0" encoding="utf-8"?>
<!-- Generator: Adobe Illustrator 17.1.0, SVG Export Plug-In . SVG Version: 6.00 Build 0)  -->
<!DOCTYPE svg PUBLIC "-//W3C//DTD SVG 1.1//EN" "http://www.w3.org/Graphics/SVG/1.1/DTD/svg11.dtd" [
	<!ENTITY ns_extend "http://ns.adobe.com/Extensibility/1.0/">
	<!ENTITY ns_ai "http://ns.adobe.com/AdobeIllustrator/10.0/">
	<!ENTITY ns_graphs "http://ns.adobe.com/Graphs/1.0/">
	<!ENTITY ns_vars "http://ns.adobe.com/Variables/1.0/">
	<!ENTITY ns_imrep "http://ns.adobe.com/ImageReplacement/1.0/">
	<!ENTITY ns_sfw "http://ns.adobe.com/SaveForWeb/1.0/">
	<!ENTITY ns_custom "http://ns.adobe.com/GenericCustomNamespace/1.0/">
	<!ENTITY ns_adobe_xpath "http://ns.adobe.com/XPath/1.0/">
]>
<svg version="1.1" id="レイヤー_1" xmlns:x="&ns_extend;" xmlns:i="&ns_ai;" xmlns:graph="&ns_graphs;"
	 xmlns="http://www.w3.org/2000/svg" xmlns:xlink="http://www.w3.org/1999/xlink" x="0px" y="0px" viewBox="0 0 376 60"
	 enable-background="new 0 0 376 60" xml:space="preserve">
<metadata>
	<sfw  xmlns="&ns_sfw;">
		<slices></slices>
		<sliceSourceBounds  width="376" height="60" bottomLeftOrigin="true" x="-1" y="-60"></sliceSourceBounds>
	</sfw>
</metadata>
<rect x="-1" fill="none" width="375" height="60"/>
<g>
	<g>
		<path fill="#9B1F24" d="M99.6,0C83.4,0,70.3,13.2,70.3,29.5C70.3,45.8,83.4,59,99.6,59c16.2,0,29.3-13.2,29.3-29.5
			C129,13.2,115.8,0,99.6,0z M172,13.1c0-0.4-1.6-2.2-2.9-3.6l-1.5,2.1h-11.3l-2.7-2.2v16.4h2.2v-0.7h12.3v22.5c0,1.4,0,1.6-2,1.6
			c-1.3,0-1.5,0-5.9-0.6l-0.1,1.3c4.9,0.8,5,1.1,5.3,2.5c4.1-0.5,4.9-1.6,4.9-4.5V13.6C170.6,13.6,172,13.5,172,13.1z M168.1,23.6
			h-12.3V19h12.3V23.6z M168.1,17.4h-12.3v-4.2h12.3V17.4z M165.7,38.4c-1.5-1.9-1.8-2.2-3.1-3.7l-1.7,2.9h-4.5V31h7.2l0.4-0.8
			c-1.4-1.7-1.7-2.1-3-3.4l-1.6,2.6h-23.1l0.5,1.6h6.8v6.5h-8.4l0.6,1.6h7.9c-0.1,5.4-1.5,8.3-7.9,11.5l0.7,1.1
			c6.7-2.8,9.3-5.5,9.4-12.6h8.4v12.2h2.2V39.1h8.8L165.7,38.4z M154.3,37.6h-8.4V31h8.4V37.6z M144.9,25.9h2.2V13.5
			c0.3,0,1.7,0,1.7-0.5c0-0.2-2-2.4-3-3.4l-1.3,2.1h-10.5l-2.8-2.1v42.9h2.2V25.2h11.6V25.9z M133.3,13.2h11.6v4.2h-11.6V13.2z
			 M133.3,23.6V19h11.6v4.7H133.3z M180.7,22.4c0.8,0,0.9-1.1,0.9-1.6c0-3.5-4.7-5.2-8.1-6.5l-0.4,1.1c1.1,0.6,4.1,2.4,5.6,4.8
			C179.8,22,180,22.4,180.7,22.4z M213.8,48.5c0-1.2,0.1-7,0.2-8.3h-0.8c-0.2,1.2-0.6,4.9-1.4,7.3c-0.6,1.7-0.6,1.9-5.3,1.9
			c-1.1,0-5.4,0-5.9-0.5c-0.4-0.3-0.4-0.5-0.4-2.2v-9.3H214l0.3-0.8c-0.4-0.5-2.3-2.9-3-3.6l-1.8,2.8h-9.3v-8.3h4.6l0.4-0.7
			c-0.8-1-2.2-2.6-3-3.2l-1.5,2.3h-19c4.7-4.3,7.6-9.2,9.1-12.1c1.8,0,2.2-0.1,2.2-0.5c0-0.2-0.6-1.2-3-3.7l-1.5,2.2h-13l-2.1-0.5
			l0.3,2h14.7c-2.2,4.3-6.1,11.4-16.3,17.9l0.7,1.1c3.2-1.6,6.6-4.4,7.3-4.9h6.6v8.3h-11l-2.5-0.3l0.6,1.9l1.4,0h11.4
			c-0.3,2.6-1.4,10.8-14.4,13.5l0.5,1.4c7.1-1.2,15.1-4.4,16.1-14.8h9.5v9.4c0,4.2,0.2,4.9,7.5,4.9c1.8,0,7.2-0.1,8.5-0.4
			c0.3,0,1.6-0.3,1.6-1.5C215.6,48.7,214.6,48.6,213.8,48.5z M198,35.8h-9.5v-8.3h9.5V35.8z M203,23.4c2.3,2.2,6.7,5.3,11,7
			c0.4-1.2,0.8-1.5,1.9-1.7v-0.8c-4.5-1.3-8.1-3.4-10.9-5.5c2.2-1.5,5.8-4.4,7-5.3c0.4,0.1,1,0.5,1.4,0.5c0.2,0,0.4-0.1,0.4-0.4
			c0-0.4-0.5-1.1-0.7-1.3l-2.5-2.3c-1.6,2.9-5.9,7.1-6.7,7.9c-1.8-1.6-2.8-2.8-3.8-4c2.1-1.5,5.2-3.9,6.3-4.9
			c0.7,0.4,1.3,0.5,1.6,0.5c0.2,0,0.4-0.1,0.4-0.4c0-0.3-0.4-0.7-0.6-0.9l-2.6-2.4c-0.2,0.3-2.2,3.5-5.8,7.1
			c-2.6-3.3-3.4-5.7-3.9-7.2l-1.2,0.3C197.2,17.5,201.2,21.7,203,23.4z M249.2,32.3h-18.6c4.5-2.7,8-5,9.7-6.3h17.8l0.4-1
			c-1-1.2-2-2.3-3.2-3.4l-1.9,2.8h-11c5.5-4.4,8.6-7.7,11.8-11.3c0.4,0.1,0.9,0.2,1.5,0.2c0.4,0,0.9,0,0.9-0.5
			c0-0.5-0.5-0.7-1.1-1.2l-2.5-1.6c-0.6,1.6-3,4.2-5.4,6.5c-0.8-1.3-1.5-2.1-2.4-3.3l-1.7,2.7H236v-4.3c1.4-0.3,2.3-0.5,2.3-1.3
			c0-0.7-1-0.7-1.4-0.7l-3.1-0.2v6.5h-13.2l-2.3-0.3l0.3,1.9l1.7,0h13.6v6.8h-16.4l-2.2-0.4l0.3,2.1l1.9-0.1h19.3
			c-6.7,4.9-14,9-21.7,11.8l0.5,1.4c1.5-0.5,4-1.3,8.9-3.6v16.9h2.2v-2.9h23.2v2.9h2.2V34.3c1.4-0.1,1.9-0.3,1.9-0.7
			c0-0.6-2.3-3-3-3.8L249.2,32.3z M236,24.4v-6.8h10.6c-2.6,2.5-4.4,4.2-7.8,6.8H236z M249.8,48.1h-23.2v-6.5h23.2V48.1z M249.8,40
			h-23.2v-5.5c0.3-0.2,0.5-0.3,1.3-0.7h21.9V40z M276.4,47.1c0.3,0.1,0.8,0.3,1,0.3c0.2,0,0.4-0.1,0.4-0.3c0-0.2-0.3-0.4-0.5-0.6
			l-1.2-1.1c-0.2,0.2-0.4,0.4-0.7,0.6V42c0.3,0.2,1.8,1.1,3.5,1.5c0.2-0.8,0.7-0.9,1-0.9l0.1-0.6c-2.2-0.3-5.6-1.3-8-3.8h7.8
			l0.2-0.5c-0.8-1-1.1-1.4-1.7-1.9l-1.1,1.5h-8.7V35h8.7l0.2-0.4c-0.8-0.9-0.9-1.2-1.7-1.9l-0.9,1.4h-6.3v-1.9H279l0.2-0.5
			c-0.8-0.9-1-1.3-1.8-1.9l-1,1.5h-5c0.8-0.5,1.3-0.9,2.4-1.8c0.1,0,0.4,0.1,0.7,0.1c0.1,0,0.4,0,0.4-0.3c0-0.2-0.2-0.3-0.6-0.5
			l-1.4-0.6c-0.4,0.8-1.9,2.6-2.5,3.1H265c0.1-0.1,0.1-0.2,0.1-0.4c0-1.9-3-2.5-4.7-2.8l-0.3,0.5c2.2,0.8,2.7,1.4,3.8,2.6h-5.5
			l-1.8-0.1l0.3,1.1l1.1-0.1h9v1.9h-6.8l-1.8-0.1l0.2,1.1L260,35h7.2v2.3h-9.6l-1.7-0.1l0.2,1.1l1.1-0.1h5.5c-0.9,1.3-3.1,4.1-7,6.3
			l0.3,0.6c1.8-0.8,3.4-1.8,4-2.4v7.6c-0.5,0-2.8,0.1-3.4,0.1l0.5,1.4c0.1,0.3,0.2,0.6,0.4,0.6c0.2,0,0.3-0.4,0.4-0.5
			c3.1-0.2,9.6-0.7,12.4-1.3v-0.6c2.6,1.5,5.5,2.2,8.4,2.4c0.2-0.6,0.4-0.8,1-0.9l0.1-0.6c-1.8-0.1-6-0.3-9.1-1.8
			C271.2,49,274.1,48.2,276.4,47.1z M264.3,38.2h6.7c0.7,1,1.3,1.6,2.1,2.3h-4.8v-0.9c0.2,0,1-0.2,1-0.5c0-0.3-0.2-0.3-0.6-0.3
			l-1.6-0.2v1.9h-4.6C263,39.9,263.2,39.7,264.3,38.2z M261.3,41.7c0.1-0.1,0.4-0.3,0.4-0.4h12.4v1.7h-12.8V41.7z M261.3,43.9h12.8
			v2h-12.8V43.9z M261.3,50.2v-3.4h5.9c1,1.4,2,2.3,3.1,3C269.7,49.9,266.9,50.1,261.3,50.2z M270.2,48.7c-0.5-0.3-1.2-0.7-2.2-1.9
			h6.1C272.9,47.5,271.8,48.1,270.2,48.7z M301.1,32.1c0.3,0,0.4-0.2,0.4-0.7c0-2-4-2.6-4.7-2.7l-0.2,0.5c0.8,0.3,2.2,0.8,3.5,2.1
			C300.8,32,300.9,32.1,301.1,32.1z M302.8,31.1l-1,1.7h-7.2c0-0.6-0.1-1.2-0.1-3.5c0.7-0.1,1.2-0.2,1.2-0.6c0-0.2-0.2-0.3-0.7-0.4
			l-1.8-0.1c0,0.2,0.1,0.4,0.1,0.7c0,0.5,0.1,3.2,0.1,3.8H284l-1.4-1.3v9.8c0,5.5-0.5,7.9-2,10.7l0.5,0.4c2.5-3.7,2.7-6.4,2.7-10.8
			v-2.3h5.7c0,0.5-0.1,3.9-0.4,6c-0.3,2.5-0.9,2.5-1.5,2.5c-1.1,0-2.8-0.4-3.5-0.6l-0.1,0.6c2.3,0.6,2.6,0.7,2.8,1.7
			c3-0.2,3.5-1.6,3.8-9.9c0.6,0,0.9-0.1,0.9-0.3c0-0.2-0.9-1.5-1.5-2.2l-0.8,1.2h-5.5v-4.7h9.7c0.3,4.5,0.9,7.7,2.2,10.8
			c-3.4,4.5-7.1,6.3-9.3,7.1l0.2,0.7c2.4-0.8,6.4-2.5,9.7-6.5c2.1,4.4,5.7,6.6,7,6.6c0.2,0,0.7,0,0.7-0.7c0-0.6-0.6-1-0.9-1.2
			c0.1-0.8,0.7-4.8,0.8-5.4l-0.5-0.2c-0.3,1.4-1,5-1.7,5c-0.2,0-1.4-0.9-2.4-1.9c-1.2-1.4-1.9-2.7-2.2-3.4c1.8-2.5,3.3-6,3.7-7.3
			c0.5,0.1,0.8,0.1,0.9,0.1c0.4,0,0.4-0.2,0.4-0.3c0-0.3-0.3-0.5-0.5-0.6l-1.9-1.1c-0.1,0.8-1.1,4.3-3.3,7.8c-0.9-2.3-1.6-5-1.8-9.5
			h9.8l0.2-0.5C304,32.3,303.3,31.6,302.8,31.1z M326.8,28.1l-0.5,0.4c1.1,1.4,1.4,2.5,1.7,3.6c0.3,0.9,0.4,1.3,0.8,1.3
			c0.4,0,0.6-0.6,0.6-1.2C329.5,31.3,328.7,29.7,326.8,28.1z M323.9,28.3l-0.5,0.4c0.8,1.1,1.5,2.3,1.9,3.6c0.3,1,0.4,1.4,0.9,1.4
			c0.3,0,0.6-0.3,0.6-1.1C326.7,31,325.1,29.3,323.9,28.3z M322.8,31c-0.1,0-0.7,0.4-0.8,0.5c-2.5,0.2-12.9,0.5-13.3,0.5
			c-1,0-1.2-0.1-1.4-0.4c-0.1-0.2-0.5-0.9-0.6-1.9c-0.3,0.3-0.7,0.6-0.7,1.1c0,1.4,1.2,3.3,1.9,3.3c0.1,0,0.6-0.4,0.7-0.4
			c0.7-0.3,5.4-0.6,13.8-1.2c-1.3,5.8-4.2,9.8-5.3,11.3c-3.2,4-6.9,6-9.4,7.2l0.3,0.8c2.9-1.3,12.1-5.3,15.7-18.1
			c0.2,0,0.8-0.2,0.8-0.4C324.5,32.9,323.1,31,322.8,31z M347.5,31.1c-0.1,0-0.1,0-0.4,0.3c-0.1,0.1-0.5,0.7-0.6,0.8
			c-1.9,0.1-4.4,0.2-6.7,0.3c-1.8,0.1-5.1,0.3-6.8,0.3c-0.5-0.8-1.6-1.5-2.1-1.5c-0.6,0-0.8,0.4-0.9,0.7c0.7,0.2,1.2,0.8,1.4,1.1
			c0.5,0.9,0.6,10.7,0.6,12.1c0,1.1-0.1,1.9-0.1,2.1c0,0.1-0.1,0.8-0.1,0.9c0,0.3,0.2,2.2,0.8,2.2c0.7,0,0.7-0.6,0.8-2.1
			c2.4-0.2,5.9-0.2,8.4-0.2c3.2,0,3.8,0.1,4.7,0.2c0.2,0,1.1,0.2,1.2,0.2c0.4,0,0.6-0.5,0.6-0.8c0-0.5-0.2-0.6-1-0.9
			c0.2-3.1,0.8-9.7,1.1-12.8c1.1-0.1,1.1-0.3,1.1-0.4C349.5,33.3,347.7,31.1,347.5,31.1z M346,46.7c-0.9,0.1-1.4,0.1-6.3,0.2
			c-2.6,0.1-5,0.2-6.3,0.3c-0.1-3.4-0.2-9.4-0.3-13c1.8-0.2,5.2-0.4,6.8-0.5c5.7-0.3,6.4-0.3,7-0.4C346.8,35.7,346.7,39.8,346,46.7z
			 M368.1,32.2c-0.1,0-0.2,0.1-0.2,0.1c-0.1,0.1-0.5,0.5-0.6,0.6c-0.8,0.1-6.3,0.5-6.8,0.5c0.2-0.3,1.1-1.9,1.3-1.9
			c0.5-0.2,0.6-0.2,0.6-0.5c0-0.8-2-2.6-2.9-2.6c-0.5,0-0.7,0.6-0.8,0.8c1.1,0.1,1.7,0.8,1.7,1.2c0,0.9-4.1,7.7-9.3,11.3l0.4,0.6
			c1.9-1.1,5.7-4.1,8.6-8.3c0.4,0.6,0.5,0.7,0.8,0.7c0.2,0,0.8-0.2,1-0.2c0.7-0.1,3.6-0.5,5.7-0.6c-1.4,4.3-3.6,7.7-6.9,11.1
			c-3.6,3.7-6.5,5.2-9.8,6.5l0.3,0.7c9-2.8,15.2-10.7,17.7-17.4c0.2,0,1-0.2,1-0.4C369.9,34.2,368.3,32.2,368.1,32.2z M372.3,28.1
			l-0.5,0.4c0.7,0.9,1.2,1.8,1.7,3.6c0.3,0.9,0.4,1.4,0.8,1.4c0.4,0,0.6-0.6,0.6-1.2C375,31.8,374.8,30.1,372.3,28.1z M369,28.5
			l-0.5,0.4c0.3,0.4,1.3,1.7,1.8,3.4c0.4,1.4,0.5,1.6,0.9,1.6c0.3,0,0.6-0.3,0.6-1.1C371.9,31,369.8,29.1,369,28.5z M24.6,50.1
			c0-0.4,0.1-3.6,0.2-4.8l-0.5,0c-0.1,0.9-0.6,4.4-0.9,4.9c-0.2,0.4-2.7,0.4-3.6,0.4h-3.9c-0.5,0-2.8-0.1-3.2-0.3
			c-0.3-0.2-0.3-0.4-0.3-1.4V38.7l4.3-2.4v10.5h1.2V35.7l4.9-2.7c-0.1,7.8-0.2,7.8-0.4,10.2c-0.1,1.3-0.8,1.3-1.4,1.3
			c-0.6,0-1.4-0.1-2.7-0.2v0.6c2,0.2,2.1,0.6,2.3,1.4c1.3-0.2,2.3-0.4,2.8-1.5c0.7-1.7,0.7-9.5,0.7-11.8c0.4-0.1,1-0.2,1-0.5
			c0-0.3-1.9-1.8-1.9-1.8l-0.7,1.6l-4.5,2.5v-5c0.8-0.2,1.3-0.3,1.3-0.7c0-0.3-0.4-0.3-0.7-0.4l-1.9-0.1v6.9l-4.3,2.4V32
			c0.3,0,1.2-0.1,1.2-0.6c0-0.3-0.3-0.3-0.6-0.4L11,30.9v7.5l-2,1.1l-1.4,0.6L8.2,41l0.5-0.4l2.3-1.3v6.3c-2.1,0.7-3,1-5.1,1.5V36.3
			h3.9l0.1-0.3c-0.3-0.5-0.7-1-1.7-2.1l-0.9,1.6H5.9v-5.9c0.8-0.1,1.3-0.2,1.3-0.7c0-0.3-0.5-0.4-0.6-0.4l-1.9-0.1v7H2.3L1,35.2
			l0.2,1.1h3.5v11.3c-2.2,0.6-2.6,0.7-3.6,0.9L1.7,50c0.1,0.3,0.3,0.6,0.5,0.6c0.3,0,0.3-0.6,0.3-0.7c2.7-0.9,6.6-2.5,8.6-3.4v2.8
			c0,2.7,1.3,2.7,4.8,2.7H20c2.5,0,4.3-0.2,4.5-0.2c0.4-0.1,1-0.3,1-0.8C25.5,50.2,25,50.1,24.6,50.1z M50.2,32.6
			c0.4,0.7,0.5,0.9,0.8,0.9c0.6,0,0.6-0.6,0.6-0.8c0-1.6-2.2-2.7-3.5-3.1L47.9,30C49,30.7,49.7,31.6,50.2,32.6z M41.1,31l0.2-0.5
			c-0.5-0.6-1.1-1.3-1.4-1.7l-0.8,1.3h-3.9l0.3,0.9H41.1z M52.1,35.9c-0.4-0.5-0.8-1-1.6-1.9l-0.9,1.5h-2.9v-6
			c1-0.2,1.1-0.4,1.1-0.6c0-0.2-0.3-0.3-0.7-0.3l-1.7-0.1v7h-4l0.3,0.9h3.7c-0.1,4.5-0.2,10.8-6.2,15.7l0.5,0.6
			c3.4-2.7,6.1-6.1,6.7-12.2c0.4,2.6,1,7.3,4.3,12.1c0.1-0.2,0.4-0.7,0.9-0.7c0.1,0,0.1,0,0.2,0.1l0.2-0.5c-0.8-0.9-2.5-3-3.9-7.3
			c-0.2-0.7-1.2-3.8-1.4-7.8h5.1L52.1,35.9z M41.5,44.2c0.7,0,0.9-0.1,0.9-0.2c0-0.2-1-1.4-1.7-2.1l-0.8,1.1H36l-1.3-0.9v8.9H36
			v-1.7h5.6V44.2z M40.3,48.5H36V44h4.3V48.5z M39.5,39.7h-4.7l0.3,0.9h6.6l0.2-0.4c-0.2-0.3-1.1-1.5-1.5-2L39.5,39.7z M40.3,35
			l-0.8,1.5h-4.7l0.3,0.8h6.6l0.2-0.4C41.2,36.1,40.9,35.6,40.3,35z M43,33.6c-0.4-0.5-1-1.3-1.6-1.8l-0.8,1.4h-6.9L34,34h8.8
			L43,33.6z M33.7,30.1c0.4,0.1,0.4,0.1,0.6,0.1c0.1,0,0.4,0,0.4-0.3c0-0.2-0.2-0.4-0.3-0.5l-1.6-1c-0.2,1-1.1,2.9-1.7,3.9
			c-0.5-1.1-1.1-1.9-2.7-3.7L28,29.2c0.7,0.8,1.7,2,2.6,4.1c-1.2,1.9-2.1,2.9-2.6,3.5l0.4,0.5c1.3-1.2,1.7-1.7,2.7-2.9
			c0.4,1.1,0.5,1.6,0.7,2.5c-0.7,3-2.1,6.5-3.9,9.1l0.3,0.5c0.7-0.8,2.4-3,3.9-6.8c0.1,1.1,0.1,2.3,0.1,3.4c0,1.6-0.2,4.3-0.5,5.9
			c-0.3,1.2-0.5,1.6-1.2,1.6c-0.5,0-2-0.2-2.6-0.3l0,0.7c1.5,0.2,2,0.2,2.2,1.4c1.1-0.2,2-0.4,2.7-2.2c0.5-1.4,0.8-4.1,0.8-6.6
			c0-6.2-1-8.5-1.7-10.2C32.6,32.1,33,31.6,33.7,30.1z M62.1,33.4c-5.5,0-9.6,4.3-9.6,9.9c0,0.5,0,2.5,0.8,3.7
			c0.1,0.2,0.7,0.8,0.8,1c0.5,0.8,0.6,1,1.3,1c3,0,6.2-10.6,6.2-12.8c0-1-0.5-1.7-0.9-2.1c0.3,0,0.7-0.1,1.2-0.1c2,0,4,0.5,5.6,2.4
			c1.2,1.3,1.9,2.8,1.9,5.5c0,7.5-5.5,8.8-9.9,8.8l0.1,0.8c2.7,0,5.2-0.4,7.1-1.4c0.9-0.5,3.9-2.6,3.9-7.8
			C70.5,35.7,65.8,33.4,62.1,33.4z M60.6,35.5c0,1.6-0.8,5.1-2.8,9.4c-1,2.1-2.1,3.3-2.6,3.3c-0.3,0-1.7-0.9-1.7-4.7
			c0-5.7,3.7-8.8,6.7-9.2C60.6,34.7,60.6,35,60.6,35.5z"/>
	</g>
</g>
<path fill="#FFFFFF" stroke="#FFFFFF" stroke-miterlimit="10" d="M100.5,17.4c0.2-2.3,0.4-4.5,0.5-10.7c2.3-0.6,2.7-0.7,2.7-1.4
	c0-0.6-0.7-0.7-1.6-0.7l-3.9-0.2c0.1,0.7,0.2,1,0.2,2.2c0,3.5-0.1,7.4-0.4,10.8H81.3L77.9,17l0.5,2.1l2.1-0.1L98,19
	c-2.7,19.7-16.4,27.5-20.3,29.1l0.7,1.2c5.3-2.6,19.5-9.6,22-30.3h0.9c4.4,18.3,14,26.7,19.6,30.1c0.7-1.4,1.2-1.8,2.7-1.9l0.4-1.2
	c-3.1-1.2-15.7-8-21.3-27.1H123l0.4-1c-0.5-0.7-3-3.5-3.7-4.1l-2.1,3.5H100.5z"/>
</svg>
